<?xml version="1.0" encoding="UTF-8"?>
<svg version="1.1" xmlns="http://www.w3.org/2000/svg" width="32" height="32">
<path d="M0 0 C2.64265627 2.22974122 2.93856891 3.51878979 3.375 6.9375 C2.95520917 10.3657918 2.08872153 12.26859492 0 15 C-0.66 15 -1.32 15 -2 15 C-2 15.66 -2 16.32 -2 17 C0.31 17.66 2.62 18.32 5 19 C4.67 19.99 4.34 20.98 4 22 C-0.29942535 21.52228607 -2.2935135 20.38310813 -5 17 C-6.0625 15.0625 -6.0625 15.0625 -6 13 C-4.3545622 11.31237149 -2.68711423 9.6459651 -1 8 C-1 6.68 -1 5.36 -1 4 C-7.38141745 4.34186165 -12.1849483 5.61105907 -17 10 C-18.72660781 12.61901185 -19.80845136 15.07077626 -21 18 C-19.72125 17.896875 -18.4425 17.79375 -17.125 17.6875 C-16.40570312 17.62949219 -15.68640625 17.57148438 -14.9453125 17.51171875 C-12.60480784 17.12606964 -12.60480784 17.12606964 -11 14 C-12.32 13.67 -13.64 13.34 -15 13 C-14.34 11.68 -13.68 10.36 -13 9 C-11.35 9.33 -9.7 9.66 -8 10 C-7.1875 12.125 -7.1875 12.125 -7 15 C-9.46543154 19.21509263 -9.46543154 19.21509263 -12 21 C-15.72133504 21.91194772 -18.9345617 21.42617532 -22.5 20 C-24.41195607 17.45072524 -24.67833912 15.28439794 -24.515625 12.12890625 C-23.55257401 8.15267301 -21.04549638 5.60943667 -18 3 C-14.875 1.125 -14.875 1.125 -12 0 C-11.38125 -0.2475 -10.7625 -0.495 -10.125 -0.75 C-6.65339587 -1.15842401 -3.37688692 -0.91771025 0 0 Z " fill="#235787" transform="translate(26,5)"/>
<path d="M0 0 C2.64265627 2.22974122 2.93856891 3.51878979 3.375 6.9375 C2.95520917 10.3657918 2.08872153 12.26859492 0 15 C-0.66 15 -1.32 15 -2 15 C-2 15.66 -2 16.32 -2 17 C0.31 17.66 2.62 18.32 5 19 C4.67 19.99 4.34 20.98 4 22 C-0.29942535 21.52228607 -2.2935135 20.38310813 -5 17 C-6.0625 15.0625 -6.0625 15.0625 -6 13 C-4.3545622 11.31237149 -2.68711423 9.6459651 -1 8 C-1 6.68 -1 5.36 -1 4 C-3.97 4 -6.94 4 -10 4 C-10.66 2.68 -11.32 1.36 -12 0 C-8.03800895 -1.48574664 -4.01693477 -1.09165106 0 0 Z " fill="#63A8E2" transform="translate(26,5)"/>
<path d="M0 0 C1.65 0.33 3.3 0.66 5 1 C5 1.99 5 2.98 5 4 C4.34 4 3.68 4 3 4 C3 4.66 3 5.32 3 6 C5.31 6.66 7.62 7.32 10 8 C9.67 8.99 9.34 9.98 9 11 C4.70057465 10.52228607 2.7064865 9.38310813 0 6 C-0.8125 3.875 -0.8125 3.875 -1 2 C-0.67 1.34 -0.34 0.68 0 0 Z " fill="#245888" transform="translate(21,16)"/>
</svg>
